<svg xmlns="http://www.w3.org/2000/svg" viewBox="0 0 1200 630">
  <rect width="1200" height="630" fill="#0A4F3A"/>
  <g opacity="0.9">
    <rect x="860" y="140" width="14" height="14" rx="3" fill="#00AE8D" transform="rotate(24 867 147)"/>
    <circle cx="960" cy="200" r="7" fill="#A8DDD4"/>
    <rect x="1030" y="150" width="12" height="12" rx="3" fill="#00AE8D" transform="rotate(-16 1036 156)"/>
    <circle cx="900" cy="300" r="9" fill="#00AE8D"/>
    <rect x="1000" y="280" width="16" height="16" rx="4" fill="#008A71" transform="rotate(40 1008 288)"/>
    <circle cx="1080" cy="360" r="6" fill="#E6F7F4"/>
    <rect x="880" y="420" width="12" height="12" rx="3" fill="#A8DDD4" transform="rotate(60 886 426)"/>
    <circle cx="980" cy="470" r="8" fill="#00AE8D"/>
    <rect x="1060" y="450" width="14" height="14" rx="3" fill="#00AE8D" transform="rotate(-30 1067 457)"/>
    <path d="M866 147 L960 200 L1036 156 M960 200 L900 300 L1008 288 L1080 360 M900 300 L886 426 L980 470 L1067 457 M1008 288 L980 470" stroke="#00AE8D" stroke-opacity="0.3" stroke-width="1.5" fill="none"/>
  </g>
  <text x="100" y="220" font-family="Poppins, Trebuchet MS, Verdana, sans-serif" font-weight="700" font-size="60" fill="#F1EFE8">Chaos goes in.</text>
  <text x="100" y="298" font-family="Poppins, Trebuchet MS, Verdana, sans-serif" font-weight="700" font-size="60" fill="#00AE8D">Solutions come out.</text>
  <text x="100" y="368" font-family="Lato, Arial, sans-serif" font-size="25" fill="#A8DDD4">Abdullah Al Masud Tushar, Senior Software Engineer</text>
  <text x="100" y="430" font-family="Lato, Arial, sans-serif" font-weight="700" font-size="22" fill="#F1EFE8">75% cloud cost cut · 5M+ requests/day · 10/10 recommendations</text>
  <text x="100" y="470" font-family="Lato, Arial, sans-serif" font-size="20" fill="#E6F7F4" opacity="0.75">Backend · Cloud SaaS · Data engineering, 7+ years deep</text>
</svg>
